# File created by Blade
# Date/Time:  Thu Sep 25 17:43:48 2014
# Frame Rate: 120.000 fps
#------------------------------------------------------
:FULLY-SPECIFIED
:DEGREES
74
root 7.096423 38.918923 -1.375667 -353.304450 -120.964151 25.959101
Spine -17.071061 26.607737 -8.150053
Head -20.421291 5.257976 2.802200
LeftShoulder -12.788818 20.358429 35.683602
LeftArm 7.174182 -19.066398 -12.338712
LeftForeArm 4.634215 -0.000000 11.620676
LeftHand -25.424616 -0.000000 -0.813011
LeftHandThumb1 -26.253704 0.000000 33.147579
RightShoulder -6.393755 20.440612 -48.187638
RightArm -2.208887 -0.199556 12.274415
RightForeArm -15.930310 0.000000 8.864301
RightHand -9.386857 -0.000000 10.011170
RightHandThumb1 -24.326973 -0.000000 -32.862282
LeftUpLeg -101.081937 45.615151 15.379232
LeftLeg 0.888496 -0.000000 -0.000000
LeftFoot 37.414807 29.185995 358.902373
LeftToeBase 6.170898 -0.000000 -0.000000
RightUpLeg 24.019068 -9.354931 -35.434338
RightLeg 21.015807 -0.000000 -0.000000
RightFoot 43.523894 12.022998 -15.554949
RightToeBase 15.361335 -0.000000 -0.000000
75
root 6.505218 38.870302 -1.395470 -355.403317 -121.165357 29.161924
Spine -18.939000 26.347595 -6.015634
Head -18.722488 6.687894 2.624733
LeftShoulder -14.057053 21.970614 34.905815
LeftArm 6.379277 -18.020040 -13.826772
LeftForeArm 5.787613 -0.000000 11.820723
LeftHand -25.292201 -0.000000 -2.148475
LeftHandThumb1 -26.253704 0.000000 33.147579
RightShoulder -5.935128 19.620071 -48.111179
RightArm -3.723767 0.008913 12.044170
RightForeArm -14.835182 0.000000 8.584399
RightHand -9.644717 -0.000000 9.779102
RightHandThumb1 -24.326973 -0.000000 -32.862282
LeftUpLeg -101.691893 45.786566 15.558046
LeftLeg 0.368479 -0.000000 -0.000000
LeftFoot 36.736734 30.427984 357.562306
LeftToeBase 5.712438 -0.000000 -0.000000
RightUpLeg 24.578391 -8.109138 -33.890565
RightLeg 20.958528 -0.000000 -0.000000
RightFoot 43.863355 11.400308 -14.326811
RightToeBase 17.150086 -0.000000 -0.000000
76
root 5.915803 38.837390 -1.414599 -357.207626 -120.892689 32.057081
Spine -20.733317 25.818266 -4.285092
Head -17.522611 7.812152 3.055875
LeftShoulder -15.293360 23.456098 34.195389
LeftArm 5.728139 -16.283168 -15.156680
LeftForeArm 6.474058 -0.000000 12.071721
LeftHand -24.963043 -0.000000 -2.864357
LeftHandThumb1 -26.253704 0.000000 33.147579
RightShoulder -5.730395 18.980201 -47.895692
RightArm -5.530546 0.380059 11.821666
RightForeArm -14.536733 -0.000000 8.528326
RightHand -10.129526 0.000000 9.853126
RightHandThumb1 -24.326973 -0.000000 -32.862282
LeftUpLeg -102.685747 45.132585 14.944186
LeftLeg 0.476832 -0.000000 -0.000000
LeftFoot 36.095157 31.194649 356.058942
LeftToeBase 4.523747 -0.000000 -0.000000
RightUpLeg 25.323400 -7.067668 -31.978159
RightLeg 20.313743 -0.000000 -0.000000
RightFoot 44.508739 10.203473 -12.539654
RightToeBase 17.564880 -0.000000 -0.000000
77
root 5.327885 38.811403 -1.404388 -358.249834 -120.365795 34.103166
Spine -22.486572 25.198871 -3.360474
Head -16.537104 8.516375 4.080577
LeftShoulder -16.295637 24.779472 33.794441
LeftArm 5.216279 -14.634341 -16.686094
LeftForeArm 6.886947 -0.000000 12.019832
LeftHand -25.316560 -0.000000 -3.163898
LeftHandThumb1 -26.253704 0.000000 33.147579
RightShoulder -5.812495 18.389625 -47.517538
RightArm -7.470497 0.647926 11.725895
RightForeArm -14.661543 -0.000000 8.593884
RightHand -10.799832 -0.000000 9.299002
RightHandThumb1 -24.326973 -0.000000 -32.862282
LeftUpLeg -103.536118 43.909788 13.837330
LeftLeg 1.193184 -0.000000 -0.000000
LeftFoot 35.580642 31.020723 354.826237
LeftToeBase 3.370823 -0.000000 -0.000000
RightUpLeg 25.974879 -6.312575 -30.247565
RightLeg 19.483931 -0.000000 -0.000000
RightFoot 44.980832 9.115999 -11.155031
RightToeBase 17.555398 -0.000000 -0.000000
78
root 4.734787 38.775062 -1.361967 -358.525478 -119.676183 35.012788
Spine -23.736906 24.633578 -3.180257
Head -16.399606 8.523658 5.050533
LeftShoulder -17.230817 26.006993 33.202041
LeftArm 4.812084 -12.629778 -17.986649
LeftForeArm 5.568513 -0.000000 11.700509
LeftHand -25.615781 -0.000000 -2.224392
LeftHandThumb1 -26.253704 0.000000 33.147579
RightShoulder -6.237545 17.851771 -47.177406
RightArm -9.677592 0.903160 11.827712
RightForeArm -15.825437 -0.000000 8.845573
RightHand -11.418903 -0.000000 8.870450
RightHandThumb1 -24.326973 -0.000000 -32.862282
LeftUpLeg -103.886399 42.210066 12.330524
LeftLeg 2.438070 -0.000000 -0.000000
LeftFoot 34.739192 30.272729 352.821219
LeftToeBase 2.631854 -0.000000 -0.000000
RightUpLeg 26.745860 -5.646695 -28.985082
RightLeg 18.410077 -0.000000 -0.000000
RightFoot 45.519157 7.838136 -9.808707
RightToeBase 17.050011 -0.000000 -0.000000
79
root 4.132588 38.723373 -1.304862 -358.089784 -118.894878 34.781332
Spine -24.538017 24.111378 -3.798231
Head -16.576138 8.098453 6.334344
LeftShoulder -17.884763 27.025770 32.757378
LeftArm 4.408459 -10.817580 -19.357968
LeftForeArm 3.725718 0.000000 11.088096
LeftHand -26.183715 -0.000000 -1.667146
LeftHandThumb1 -26.253704 0.000000 33.147579
RightShoulder -6.983224 16.939762 -46.706498
RightArm -11.894228 1.613356 12.169744
RightForeArm -17.972031 0.000000 9.354540
RightHand -11.504246 0.000000 9.437825
RightHandThumb1 -24.326973 -0.000000 -32.862282
LeftUpLeg -103.697054 40.167869 10.350509
LeftLeg 4.046360 -0.000000 -0.000000
LeftFoot 33.645032 29.265557 349.776287
LeftToeBase 2.575495 -0.000000 -0.000000
RightUpLeg 27.631007 -5.321366 -28.424417
RightLeg 17.315668 -0.000000 -0.000000
RightFoot 45.793195 6.634714 -8.720342
RightToeBase 14.884357 -0.000000 -0.000000
80
root 3.531477 38.645766 -1.234517 -357.654341 -118.119730 34.180040
Spine -24.740969 23.785478 -4.366149
Head -16.964547 7.290322 7.069487
LeftShoulder -18.274992 27.897006 32.117076
LeftArm 3.948923 -9.225647 -20.836592
LeftForeArm 1.446694 -0.000000 10.295330
LeftHand -26.818023 -0.000000 -0.548964
LeftHandThumb1 -26.253704 0.000000 33.147579
RightShoulder -7.739092 15.892213 -46.381434
RightArm -14.193425 1.621575 12.853466
RightForeArm -19.696705 0.000000 9.675952
RightHand -11.048608 -0.000000 9.451574
RightHandThumb1 -24.326973 -0.000000 -32.862282
LeftUpLeg -102.663103 38.065164 8.884574
LeftLeg 6.102021 -0.000000 -0.000000
LeftFoot 32.568152 28.335586 346.115008
LeftToeBase 2.974973 -0.000000 -0.000000
RightUpLeg 28.596070 -5.727308 -28.541237
RightLeg 16.217786 -0.000000 -0.000000
RightFoot 46.007728 6.231126 -8.324834
RightToeBase 14.833542 -0.000000 -0.000000
81
root 2.944157 38.548581 -1.172597 -357.471637 -117.574090 33.673776
Spine -24.600471 23.682776 -4.729262
Head -17.335625 6.642758 7.486417
LeftShoulder -18.644747 28.807472 31.319341
LeftArm 3.610874 -7.807418 -22.471219
LeftForeArm -0.573514 -0.000000 9.335907
LeftHand -27.053756 0.000000 -0.120358
LeftHandThumb1 -26.253704 0.000000 33.147579
RightShoulder -8.702383 14.478648 -46.012309
RightArm -15.872418 1.369990 13.868574
RightForeArm -20.505666 -0.000000 9.970822
RightHand -11.216146 -0.000000 9.992370
RightHandThumb1 -24.326973 -0.000000 -32.862282
LeftUpLeg -101.009139 36.230508 7.918530
LeftLeg 8.400616 -0.000000 -0.000000
LeftFoot 32.003392 27.638389 342.738584
LeftToeBase 4.000923 -0.000000 -0.000000
RightUpLeg 29.396779 -6.401950 -28.844848
RightLeg 15.166100 -0.000000 -0.000000
RightFoot 46.151969 6.303076 -8.463877
RightToeBase 15.031350 -0.000000 -0.000000
82
root 2.347885 38.426229 -1.093578 -357.103307 -117.265828 32.938869
Spine -24.435143 23.911451 -5.161501
Head -17.505708 5.726862 7.688518
LeftShoulder -18.880550 29.635937 30.455926
LeftArm 3.309437 -6.530296 -24.236338
LeftForeArm -1.860725 -0.000000 8.614264
LeftHand -27.302034 -0.000000 -0.184470
LeftHandThumb1 -26.253704 0.000000 33.147579
RightShoulder -9.823887 12.905545 -45.707103
RightArm -17.256248 0.854219 15.291016
RightForeArm -20.281923 0.000000 10.121935
RightHand -10.108523 -0.000000 8.702591
RightHandThumb1 -24.326973 -0.000000 -32.862282
LeftUpLeg -98.953415 34.662542 7.322473
LeftLeg 11.015806 -0.000000 -0.000000
LeftFoot 31.516102 27.693836 339.390435
LeftToeBase 5.199453 -0.000000 -0.000000
RightUpLeg 29.985013 -7.438609 -29.624586
RightLeg 14.024913 -0.000000 -0.000000
RightFoot 46.217705 6.732924 -8.485362
RightToeBase 15.456794 -0.000000 -0.000000
83
root 1.741545 38.283847 -1.010894 -356.577799 -117.121589 31.967259
Spine -24.313400 24.332657 -5.719191
Head -17.464062 4.741262 7.728962
LeftShoulder -18.809487 30.319184 29.772587
LeftArm 2.964148 -5.289243 -26.180552
LeftForeArm -1.524307 -0.000000 8.082466
LeftHand -27.526410 0.000000 -1.357513
LeftHandThumb1 -26.253704 0.000000 33.147579
RightShoulder -11.120448 11.325067 -45.193722
RightArm -18.090938 -0.093935 16.889296
RightForeArm -19.715890 -0.000000 10.056469
RightHand -10.484826 -0.000000 8.657822
RightHandThumb1 -24.326973 -0.000000 -32.862282
LeftUpLeg -96.767890 33.193356 6.600563
LeftLeg 13.928050 -0.000000 -0.000000
LeftFoot 30.995560 27.948308 336.909203
LeftToeBase 7.735599 -0.000000 -0.000000
RightUpLeg 30.463978 -8.858597 -30.838092
RightLeg 12.855105 -0.000000 -0.000000
RightFoot 46.232598 7.884009 -8.734808
RightToeBase 15.926595 -0.000000 -0.000000
